<svg width="230" height="230" viewBox="0 0 230 230" fill="none" xmlns="http://www.w3.org/2000/svg">
<g id="warning (1) 1" opacity="0.07" clip-path="url(#clip0_1429_10726)">
<path id="Vector" d="M82.793 185.415H155.844V221.088H82.793V185.415Z" fill="#0E0E0E"/>
<path id="Vector_2" d="M196.356 17.4617H33.6405C15.0611 17.4617 0 32.5245 0 51.1039V162.308C0 180.888 15.0611 195.949 33.6405 195.949H196.356C214.937 195.949 229.998 180.888 229.998 162.308V51.1039C229.998 32.5245 214.937 17.4617 196.356 17.4617Z" fill="#939393"/>
<path id="Vector_3" d="M45.2483 195.951H33.6405C15.0629 195.951 0 180.888 0 162.308V51.1022C0 32.5228 15.0629 17.4617 33.6405 17.4617H45.2483C26.6706 17.4617 11.6077 32.5228 11.6077 51.1022V162.308C11.6077 180.888 26.6706 195.951 45.2483 195.951Z" fill="#304C56"/>
<path id="Vector_4" d="M162.136 227.929H76.4968C69.8884 227.929 67.6476 219.11 73.4541 215.955L82.7912 210.88H155.842L165.181 215.955C170.985 219.11 168.745 227.929 162.136 227.929Z" fill="#304C56"/>
<path id="Vector_5" d="M14.0781 143.044V49.7105C14.0781 39.6768 22.2114 31.5435 32.2434 31.5435H197.747C207.781 31.5435 215.914 39.6785 215.914 49.7105V143.044C215.914 153.076 207.781 161.21 197.747 161.21H32.2434C22.2114 161.21 14.0781 153.076 14.0781 143.044Z" fill="white"/>
<path id="Vector_6" d="M197.746 164.732H32.2418C20.2848 164.732 10.5547 155.003 10.5547 143.044V49.7105C10.5547 37.7518 20.2848 28.0234 32.2418 28.0234H197.746C209.704 28.0234 219.433 37.7518 219.433 49.7105V143.043C219.433 155.001 209.704 164.732 197.746 164.732ZM32.2418 35.0653C24.1664 35.0653 17.5965 41.6351 17.5965 49.7105V143.044C17.5965 151.12 24.1664 157.69 32.2418 157.69H197.746C205.821 157.69 212.393 151.12 212.393 143.044V49.7105C212.393 41.6351 205.821 35.0653 197.746 35.0653H32.2418Z" fill="#8F8F8F"/>
<path id="Vector_7" d="M98.7645 12.0675L40.2029 113.498C32.9891 125.992 42.0068 141.611 56.4345 141.611H173.556C187.985 141.611 197.003 125.992 189.789 113.498L131.228 12.0675C124.014 -0.428112 105.978 -0.428112 98.7645 12.0675Z" fill="#304C56"/>
<path id="Vector_8" d="M56.4338 127.531C54.0929 127.531 52.8997 126.069 52.3978 125.201C51.8942 124.33 51.2256 122.567 52.3978 120.538L110.959 19.1077C112.13 17.0792 113.99 16.7773 114.995 16.7773C116.001 16.7773 117.861 17.0792 119.031 19.1077L177.593 120.538C178.763 122.567 178.095 124.33 177.593 125.201C177.091 126.069 175.898 127.531 173.557 127.531H56.4338Z" fill="white"/>
<g id="Group">
<path id="Vector_9" d="M108.966 89.2823C108.966 92.0952 111.201 93.7745 114.948 93.7745C117.222 93.7745 120.83 92.5549 120.83 89.2823C120.83 83.3722 121.184 76.0461 121.525 68.9621C121.867 61.8747 122.221 54.5468 122.221 48.6297C122.221 44.9904 119.229 42.4495 114.946 42.4495C110.536 42.4495 107.574 44.9324 107.574 48.6297C107.574 54.5468 107.927 61.8747 108.269 68.9621C108.611 76.0461 108.966 83.3722 108.966 89.2823Z" fill="#304C56"/>
<path id="Vector_10" d="M115.047 100.397C110.69 100.397 107.277 103.812 107.277 108.169C107.277 112.454 110.764 115.941 115.047 115.941C119.134 115.941 122.719 112.308 122.719 108.169C122.719 103.957 119.206 100.397 115.047 100.397Z" fill="#304C56"/>
</g>
</g>
<defs>
<clipPath id="clip0_1429_10726">
<rect width="230" height="230" fill="white"/>
</clipPath>
</defs>
</svg>
