<svg width="103" height="27" viewBox="0 0 103 27" fill="none" xmlns="http://www.w3.org/2000/svg">
<path fill-rule="evenodd" clip-rule="evenodd" d="M13 3.23H3.9C3.25383 3.23 2.73 3.75383 2.73 4.4V13.5C2.73 14.1462 3.25383 14.67 3.9 14.67H13C13.6462 14.67 14.17 14.1462 14.17 13.5V4.4C14.17 3.75383 13.6462 3.23 13 3.23ZM3.9 0.5C1.74609 0.5 0 2.24609 0 4.4V13.5C0 15.6539 1.74609 17.4 3.9 17.4H13C15.1539 17.4 16.9 15.6539 16.9 13.5V4.4C16.9 2.24609 15.1539 0.5 13 0.5H3.9Z" fill="#3A3A3A"/>
<path fill-rule="evenodd" clip-rule="evenodd" d="M22.1016 12.3301H13.0016C12.3554 12.3301 11.8316 12.8539 11.8316 13.5001V22.6001C11.8316 23.2463 12.3554 23.7701 13.0016 23.7701H22.1016C22.7477 23.7701 23.2716 23.2463 23.2716 22.6001V13.5001C23.2716 12.8539 22.7477 12.3301 22.1016 12.3301ZM13.0016 9.6001C10.8477 9.6001 9.10156 11.3462 9.10156 13.5001V22.6001C9.10156 24.754 10.8477 26.5001 13.0016 26.5001H22.1016C24.2555 26.5001 26.0016 24.754 26.0016 22.6001V13.5001C26.0016 11.3462 24.2555 9.6001 22.1016 9.6001H13.0016Z" fill="#3A3A3A"/>
<path d="M13.0016 12.3301C12.3554 12.3301 11.8316 12.8539 11.8316 13.5001V22.6001C11.8316 23.2334 12.3356 23.7516 12.9686 23.7692L13.0016 23.7701V26.5001C10.8477 26.5001 9.10156 24.754 9.10156 22.6001V13.5001C9.10156 11.3462 10.8477 9.6001 13.0016 9.6001H19.0466V12.3301H13.0016Z" fill="#00F3AE"/>
<path d="M11.832 14.6699H16.7238L-nan -nanL16.7238 14.6699C16.2767 16.0995 15.0477 17.1448 13.5649 17.3567L13.262 17.3999H11.832V14.6699Z" fill="#00F3AE"/>
<path d="M44.2 12.72C45.0133 12.9467 45.64 13.36 46.08 13.96C46.5333 14.56 46.76 15.2933 46.76 16.16C46.76 17.36 46.3267 18.3 45.46 18.98C44.6067 19.66 43.4267 20 41.92 20H36.76C36.3733 20 36.0667 19.8933 35.84 19.68C35.6267 19.4667 35.52 19.1667 35.52 18.78V7.12C35.52 6.73333 35.6267 6.43333 35.84 6.22C36.0667 6.00667 36.3733 5.9 36.76 5.9H41.72C43.1867 5.9 44.3333 6.22667 45.16 6.88C46 7.52 46.42 8.42 46.42 9.58C46.42 10.3267 46.22 10.9733 45.82 11.52C45.4333 12.0667 44.8933 12.4667 44.2 12.72ZM38.04 11.84H41.3C43.0733 11.84 43.96 11.18 43.96 9.86C43.96 9.19333 43.74 8.7 43.3 8.38C42.86 8.06 42.1933 7.9 41.3 7.9H38.04V11.84ZM41.64 18C42.5733 18 43.2533 17.8333 43.68 17.5C44.1067 17.1667 44.32 16.6467 44.32 15.94C44.32 15.2333 44.1 14.7067 43.66 14.36C43.2333 14.0133 42.56 13.84 41.64 13.84H38.04V18H41.64ZM56.6923 17.32C56.919 17.32 57.099 17.4067 57.2323 17.58C57.379 17.7533 57.4523 17.9867 57.4523 18.28C57.4523 18.6933 57.2057 19.04 56.7123 19.32C56.259 19.5733 55.7457 19.78 55.1723 19.94C54.599 20.0867 54.0523 20.16 53.5323 20.16C51.959 20.16 50.7123 19.7067 49.7923 18.8C48.8723 17.8933 48.4123 16.6533 48.4123 15.08C48.4123 14.08 48.6123 13.1933 49.0123 12.42C49.4123 11.6467 49.9723 11.0467 50.6923 10.62C51.4257 10.1933 52.2523 9.98 53.1723 9.98C54.0523 9.98 54.819 10.1733 55.4723 10.56C56.1257 10.9467 56.6323 11.4933 56.9923 12.2C57.3523 12.9067 57.5323 13.74 57.5323 14.7C57.5323 15.2733 57.279 15.56 56.7723 15.56H50.8723C50.9523 16.48 51.2123 17.16 51.6523 17.6C52.0923 18.0267 52.7323 18.24 53.5723 18.24C53.999 18.24 54.3723 18.1867 54.6923 18.08C55.0257 17.9733 55.399 17.8267 55.8123 17.64C56.2123 17.4267 56.5057 17.32 56.6923 17.32ZM53.2323 11.74C52.5523 11.74 52.0057 11.9533 51.5923 12.38C51.1923 12.8067 50.9523 13.42 50.8723 14.22H55.3923C55.3657 13.4067 55.1657 12.7933 54.7923 12.38C54.419 11.9533 53.899 11.74 53.2323 11.74ZM63.1173 20.16C61.664 20.16 60.4907 19.8733 59.5973 19.3C59.1707 19.0467 58.9573 18.6867 58.9573 18.22C58.9573 17.9533 59.0307 17.74 59.1773 17.58C59.324 17.4067 59.504 17.32 59.7173 17.32C59.944 17.32 60.2573 17.4267 60.6573 17.64C61.084 17.84 61.4707 17.9933 61.8173 18.1C62.1773 18.2067 62.6307 18.26 63.1773 18.26C63.7373 18.26 64.1707 18.1667 64.4773 17.98C64.7973 17.7933 64.9573 17.5333 64.9573 17.2C64.9573 16.9733 64.8907 16.7933 64.7573 16.66C64.6373 16.5267 64.4107 16.4067 64.0773 16.3C63.7573 16.18 63.264 16.0467 62.5973 15.9C61.4107 15.66 60.5573 15.32 60.0373 14.88C59.5307 14.44 59.2773 13.8333 59.2773 13.06C59.2773 12.4733 59.4507 11.9467 59.7973 11.48C60.144 11 60.6173 10.6333 61.2173 10.38C61.8307 10.1133 62.524 9.98 63.2973 9.98C63.8573 9.98 64.3973 10.0533 64.9173 10.2C65.4373 10.3333 65.904 10.5333 66.3173 10.8C66.744 11.0667 66.9573 11.42 66.9573 11.86C66.9573 12.1267 66.884 12.3533 66.7373 12.54C66.5907 12.7133 66.4107 12.8 66.1973 12.8C66.0507 12.8 65.904 12.7733 65.7573 12.72C65.624 12.6533 65.4507 12.56 65.2373 12.44C64.8507 12.24 64.5173 12.0933 64.2373 12C63.9573 11.8933 63.6107 11.84 63.1973 11.84C62.704 11.84 62.3107 11.94 62.0173 12.14C61.7373 12.34 61.5973 12.6133 61.5973 12.96C61.5973 13.2933 61.744 13.5467 62.0373 13.72C62.3307 13.8933 62.8973 14.0667 63.7373 14.24C64.6307 14.4267 65.3307 14.64 65.8373 14.88C66.344 15.12 66.704 15.42 66.9173 15.78C67.144 16.14 67.2573 16.6 67.2573 17.16C67.2573 18.0667 66.8773 18.7933 66.1173 19.34C65.3707 19.8867 64.3707 20.16 63.1173 20.16ZM74.2667 18.26C74.9334 18.3 75.2667 18.6 75.2667 19.16C75.2667 19.48 75.1334 19.7267 74.8667 19.9C74.6134 20.06 74.2467 20.1267 73.7667 20.1L73.2267 20.06C70.9867 19.9 69.8667 18.7 69.8667 16.46V12.1H68.8667C68.5067 12.1 68.2267 12.02 68.0267 11.86C67.8401 11.7 67.7467 11.4667 67.7467 11.16C67.7467 10.8533 67.8401 10.62 68.0267 10.46C68.2267 10.3 68.5067 10.22 68.8667 10.22H69.8667V8.38C69.8667 8.02 69.9801 7.73333 70.2067 7.52C70.4334 7.30667 70.7401 7.2 71.1267 7.2C71.5001 7.2 71.8001 7.30667 72.0267 7.52C72.2534 7.73333 72.3667 8.02 72.3667 8.38V10.22H74.0667C74.4267 10.22 74.7001 10.3 74.8867 10.46C75.0867 10.62 75.1867 10.8533 75.1867 11.16C75.1867 11.4667 75.0867 11.7 74.8867 11.86C74.7001 12.02 74.4267 12.1 74.0667 12.1H72.3667V16.64C72.3667 17.6267 72.8201 18.1533 73.7267 18.22L74.2667 18.26ZM77.8095 20.12C77.4495 20.12 77.1495 20.02 76.9095 19.82C76.6829 19.6067 76.5695 19.3067 76.5695 18.92V11.2C76.5695 10.8133 76.6829 10.52 76.9095 10.32C77.1495 10.12 77.4495 10.02 77.8095 10.02C78.1695 10.02 78.4695 10.12 78.7095 10.32C78.9495 10.52 79.0695 10.8133 79.0695 11.2V18.92C79.0695 19.3067 78.9495 19.6067 78.7095 19.82C78.4695 20.02 78.1695 20.12 77.8095 20.12ZM77.8095 8.24C77.3562 8.24 76.9962 8.12 76.7295 7.88C76.4629 7.62667 76.3295 7.3 76.3295 6.9C76.3295 6.5 76.4629 6.18 76.7295 5.94C76.9962 5.7 77.3562 5.58 77.8095 5.58C78.2495 5.58 78.6029 5.7 78.8695 5.94C79.1495 6.18 79.2895 6.5 79.2895 6.9C79.2895 7.3 79.1562 7.62667 78.8895 7.88C78.6229 8.12 78.2629 8.24 77.8095 8.24ZM83.1477 20.12C82.761 20.12 82.4477 20 82.2077 19.76C81.981 19.52 81.8677 19.2067 81.8677 18.82V7.12C81.8677 6.73333 81.9743 6.43333 82.1877 6.22C82.4143 6.00667 82.721 5.9 83.1077 5.9H90.1277C90.941 5.9 91.3477 6.24667 91.3477 6.94C91.3477 7.62 90.941 7.96 90.1277 7.96H84.4077V11.8H89.7277C90.541 11.8 90.9477 12.1467 90.9477 12.84C90.9477 13.52 90.541 13.86 89.7277 13.86H84.4077V18.82C84.4077 19.2067 84.2943 19.52 84.0677 19.76C83.841 20 83.5343 20.12 83.1477 20.12ZM99.7958 10.74C99.9024 10.5 100.042 10.3267 100.216 10.22C100.402 10.1 100.602 10.04 100.816 10.04C101.122 10.04 101.396 10.1467 101.636 10.36C101.889 10.56 102.016 10.8133 102.016 11.12C102.016 11.2667 101.976 11.42 101.896 11.58L96.4358 23.02C96.2091 23.4733 95.8558 23.7 95.3758 23.7C95.0691 23.7 94.7958 23.6 94.5558 23.4C94.3291 23.2133 94.2158 22.9733 94.2158 22.68C94.2158 22.5333 94.2558 22.3667 94.3358 22.18L95.6958 19.32L91.9758 11.58C91.9091 11.4467 91.8758 11.2933 91.8758 11.12C91.8758 10.8133 92.0024 10.5533 92.2558 10.34C92.5224 10.1267 92.8224 10.02 93.1558 10.02C93.3824 10.02 93.5891 10.08 93.7758 10.2C93.9624 10.3067 94.1091 10.48 94.2158 10.72L97.0158 16.9L99.7958 10.74Z" fill="#3A3A3A"/>
</svg>
